<mxfile host="app.diagrams.net" modified="2024-03-21T13:49:23.157Z" agent="Mozilla/5.0 (Windows NT 10.0; Win64; x64) AppleWebKit/537.36 (KHTML, like Gecko) Chrome/121.0.0.0 Safari/537.36 OPR/107.0.0.0" etag="S1r2DhDOY__HvDRh6VXU" version="24.0.2" type="device">
  <diagram name="Strona-1" id="AWiner5oOUAS1Hgjm13_">
    <mxGraphModel dx="1009" dy="550" grid="1" gridSize="10" guides="1" tooltips="1" connect="1" arrows="1" fold="1" page="1" pageScale="1" pageWidth="827" pageHeight="1169" math="0" shadow="0">
      <root>
        <mxCell id="0" />
        <mxCell id="1" parent="0" />
        <mxCell id="OU6gtnCaueoLbP9GBH95-1" value="" style="strokeWidth=1;shadow=0;dashed=0;align=center;html=1;shape=mxgraph.mockup.containers.browserWindow;rSize=0;strokeColor=#666666;strokeColor2=#008cff;strokeColor3=#c4c4c4;mainText=,;recursiveResize=0;" vertex="1" parent="1">
          <mxGeometry x="140" y="40" width="560" height="485" as="geometry" />
        </mxCell>
        <mxCell id="OU6gtnCaueoLbP9GBH95-2" value="Page 1" style="strokeWidth=1;shadow=0;dashed=0;align=center;html=1;shape=mxgraph.mockup.containers.anchor;fontSize=17;fontColor=#666666;align=left;whiteSpace=wrap;" vertex="1" parent="OU6gtnCaueoLbP9GBH95-1">
          <mxGeometry x="60" y="12" width="110" height="26" as="geometry" />
        </mxCell>
        <mxCell id="OU6gtnCaueoLbP9GBH95-3" value="https://www.scrum-board.com/tablica/1" style="strokeWidth=1;shadow=0;dashed=0;align=center;html=1;shape=mxgraph.mockup.containers.anchor;rSize=0;fontSize=17;fontColor=#666666;align=left;" vertex="1" parent="OU6gtnCaueoLbP9GBH95-1">
          <mxGeometry x="130" y="60" width="250" height="26" as="geometry" />
        </mxCell>
        <mxCell id="OU6gtnCaueoLbP9GBH95-4" value="" style="verticalLabelPosition=bottom;shadow=0;dashed=0;align=center;html=1;verticalAlign=top;strokeWidth=1;shape=mxgraph.mockup.containers.userMale;strokeColor=#666666;strokeColor2=#008cff;" vertex="1" parent="OU6gtnCaueoLbP9GBH95-1">
          <mxGeometry x="520" y="110" width="40" height="40" as="geometry" />
        </mxCell>
        <mxCell id="OU6gtnCaueoLbP9GBH95-26" value="" style="strokeWidth=1;shadow=0;dashed=0;align=center;html=1;shape=mxgraph.mockup.forms.anchor;align=right;spacingRight=2;fontColor=#666666;" vertex="1" parent="OU6gtnCaueoLbP9GBH95-1">
          <mxGeometry x="60" y="200" width="50" height="18" as="geometry" />
        </mxCell>
        <mxCell id="OU6gtnCaueoLbP9GBH95-28" value="" style="strokeWidth=1;shadow=0;dashed=0;align=center;html=1;shape=mxgraph.mockup.forms.anchor;align=right;spacingRight=2;fontColor=#666666;" vertex="1" parent="OU6gtnCaueoLbP9GBH95-1">
          <mxGeometry x="60" y="230" width="50" height="18" as="geometry" />
        </mxCell>
        <mxCell id="OU6gtnCaueoLbP9GBH95-134" value="" style="verticalLabelPosition=bottom;shadow=0;dashed=0;align=center;html=1;verticalAlign=top;strokeWidth=1;shape=mxgraph.mockup.misc.help_icon;" vertex="1" parent="OU6gtnCaueoLbP9GBH95-1">
          <mxGeometry x="6" y="118" width="32" height="32" as="geometry" />
        </mxCell>
        <mxCell id="OU6gtnCaueoLbP9GBH95-135" value="&lt;font style=&quot;font-size: 14px;&quot;&gt;&lt;b&gt;Nazwa tablicy&lt;/b&gt;&lt;/font&gt;" style="text;html=1;align=center;verticalAlign=middle;whiteSpace=wrap;rounded=0;" vertex="1" parent="OU6gtnCaueoLbP9GBH95-1">
          <mxGeometry x="38" y="120" width="102" height="30" as="geometry" />
        </mxCell>
        <mxCell id="OU6gtnCaueoLbP9GBH95-137" value="" style="shape=mxgraph.mockup.containers.marginRect;rectMarginTop=10;strokeColor=#666666;strokeWidth=1;dashed=0;rounded=1;arcSize=5;recursiveResize=0;html=1;whiteSpace=wrap;" vertex="1" parent="OU6gtnCaueoLbP9GBH95-1">
          <mxGeometry x="224.5" y="190" width="111" height="270" as="geometry" />
        </mxCell>
        <mxCell id="OU6gtnCaueoLbP9GBH95-139" value="aby rozpocząć, utwórz sekcję" style="text;html=1;align=center;verticalAlign=middle;whiteSpace=wrap;rounded=0;" vertex="1" parent="OU6gtnCaueoLbP9GBH95-1">
          <mxGeometry x="235" y="210" width="90" height="30" as="geometry" />
        </mxCell>
        <mxCell id="OU6gtnCaueoLbP9GBH95-141" value="" style="endArrow=none;html=1;rounded=0;" edge="1" parent="OU6gtnCaueoLbP9GBH95-1">
          <mxGeometry width="50" height="50" relative="1" as="geometry">
            <mxPoint x="280" y="355" as="sourcePoint" />
            <mxPoint x="280" y="295" as="targetPoint" />
          </mxGeometry>
        </mxCell>
        <mxCell id="OU6gtnCaueoLbP9GBH95-142" value="" style="endArrow=none;html=1;rounded=0;" edge="1" parent="OU6gtnCaueoLbP9GBH95-1">
          <mxGeometry width="50" height="50" relative="1" as="geometry">
            <mxPoint x="250" y="325" as="sourcePoint" />
            <mxPoint x="310" y="325" as="targetPoint" />
            <Array as="points">
              <mxPoint x="280" y="325" />
            </Array>
          </mxGeometry>
        </mxCell>
      </root>
    </mxGraphModel>
  </diagram>
</mxfile>
